<svg width="512" height="512" viewBox="0 0 96 96" fill="none" xmlns="http://www.w3.org/2000/svg">
  <defs>
    <linearGradient id="bgGrad" x1="0" y1="0" x2="96" y2="96" gradientUnits="userSpaceOnUse">
      <stop offset="0%" stop-color="#3B9CEB"/>
      <stop offset="100%" stop-color="#1E6ABF"/>
    </linearGradient>
    <linearGradient id="checkGrad" x1="48" y1="52" x2="72" y2="76" gradientUnits="userSpaceOnUse">
      <stop offset="0%" stop-color="#56C285"/>
      <stop offset="100%" stop-color="#348A52"/>
    </linearGradient>
  </defs>

  <!-- Fondo -->
  <rect x="4" y="4" width="88" height="88" rx="22" fill="url(#bgGrad)"/>

  <!-- Documento -->
  <path d="M34 24 h20 l14 14 v34 a4 4 0 0 1 -4 4 H34 a4 4 0 0 1 -4 -4 V28 a4 4 0 0 1 4 -4 Z" fill="#FFFFFF"/>
  <path d="M54 24 v10 a4 4 0 0 0 4 4 h10 Z" fill="#D6EAFC"/>

  <!-- Líneas -->
  <rect x="38" y="44" width="18" height="3" rx="1.5" fill="#2783DE"/>
  <rect x="38" y="51" width="14" height="3" rx="1.5" fill="#B0D4F1"/>

  <!-- Check -->
  <circle cx="62" cy="66" r="13" fill="url(#checkGrad)"/>
  <path d="M56.5 66 l3.8 3.8 L68 62" stroke="#FFF" stroke-width="3" stroke-linecap="round" stroke-linejoin="round" fill="none"/>
</svg>
